<?xml version="1.0" encoding="UTF-8"?><svg id="svg2759" xmlns="http://www.w3.org/2000/svg" width="120" height="42" viewBox="0 0 120 42"><path d="m3.41.44l113.35.2c1.58,0,3-.23,3,3.16l-.14,37.33H.55V3.66C.55,1.99.71.44,3.41.44Z" style="fill:#aab2ab; stroke-width:0px;"/><path d="m34.52,19.54c0,7.53-6.1,13.64-13.63,13.64-7.53,0-13.64-6.1-13.64-13.62v-.02c0-7.53,6.1-13.64,13.63-13.64,7.53,0,13.64,6.1,13.64,13.63v.02Z" style="fill:#fff; stroke-width:0px;"/><path d="m31.97,8.43c3.02,3.02,4.54,6.73,4.54,11.1s-1.49,8.04-4.46,10.99c-3.15,3.1-6.88,4.65-11.18,4.65s-7.91-1.54-10.99-4.62c-3.08-3.08-4.61-6.75-4.61-11.03s1.54-7.98,4.61-11.1c3-3.02,6.66-4.54,10.99-4.54s8.08,1.51,11.1,4.54Zm-20.05,2.03c-2.56,2.58-3.83,5.61-3.83,9.08s1.27,6.47,3.79,9c2.53,2.53,5.54,3.79,9.04,3.79s6.53-1.28,9.11-3.83c2.45-2.37,3.68-5.36,3.68-8.96s-1.25-6.6-3.74-9.09c-2.49-2.49-5.51-3.74-9.06-3.74s-6.55,1.25-9,3.75Zm6.73,7.55c-.39-.85-.98-1.28-1.75-1.28-1.38,0-2.07.93-2.07,2.78s.69,2.78,2.07,2.78c.91,0,1.56-.45,1.95-1.36l1.91,1.02c-.91,1.62-2.28,2.43-4.1,2.43-1.41,0-2.53-.43-3.38-1.29-.85-.86-1.27-2.05-1.27-3.56s.44-2.67,1.31-3.54c.87-.87,1.96-1.31,3.26-1.31,1.93,0,3.3.76,4.14,2.27l-2.07,1.06Zm8.99,0c-.39-.85-.96-1.28-1.72-1.28-1.41,0-2.11.93-2.11,2.78s.7,2.78,2.11,2.78c.91,0,1.55-.45,1.91-1.36l1.95,1.02c-.91,1.62-2.27,2.43-4.09,2.43-1.4,0-2.53-.43-3.37-1.29-.84-.86-1.27-2.05-1.27-3.56s.43-2.67,1.29-3.54c.86-.87,1.95-1.31,3.27-1.31,1.92,0,3.3.76,4.13,2.27l-2.11,1.06Z" style="stroke-width:0px;"/><path d="m117.75,0H2.25C1.01,0,0,1.01,0,2.25v39.25c0,.28.23.51.51.51h118.98c.28,0,.51-.23.51-.51V2.25c0-1.24-1.01-2.25-2.25-2.25ZM2.25,1.01h115.51c.68,0,1.23.55,1.23,1.23v27.21H36.43c-3.03,5.47-8.86,9.19-15.55,9.19s-12.52-3.71-15.55-9.19H1.02V2.25c0-.68.55-1.23,1.23-1.23Z" style="stroke-width:0px;"/><path d="m60,32.75c.32,0,.6.03.86.08.26.06.48.15.67.27.19.13.33.29.43.5.1.21.15.47.15.78,0,.33-.08.61-.23.83-.15.22-.38.41-.67.55.41.12.72.32.92.62.2.29.3.65.3,1.06,0,.33-.06.62-.2.87-.13.24-.31.44-.53.6-.22.16-.47.27-.75.34-.28.07-.57.11-.87.11h-3.22v-6.62h3.12Zm-.19,2.68c.26,0,.47-.06.64-.19.17-.12.25-.32.25-.6,0-.15-.03-.28-.08-.38-.06-.1-.13-.18-.22-.23-.09-.06-.2-.09-.32-.12s-.25-.03-.38-.03h-1.37v1.54h1.48Zm.08,2.81c.14,0,.28-.01.41-.04.13-.03.25-.08.34-.14.1-.06.18-.15.24-.26.06-.11.09-.25.09-.43,0-.34-.1-.58-.29-.73-.19-.14-.45-.22-.76-.22h-1.59v1.82h1.56Z" style="fill:#fff; stroke-width:0px;"/><polygon points="62.69 32.75 64.32 32.75 65.88 35.36 67.42 32.75 69.04 32.75 66.58 36.83 66.58 39.37 65.12 39.37 65.12 36.79 62.69 32.75" style="fill:#fff; stroke-width:0px;"/><polygon points="86.43 32.75 89.2 37.19 89.22 37.19 89.22 32.75 90.58 32.75 90.58 39.37 89.13 39.37 86.37 34.94 86.35 34.94 86.35 39.37 84.98 39.37 84.98 32.75 86.43 32.75" style="fill:#fff; stroke-width:0px;"/><path d="m96.11,34.51c-.09-.14-.2-.26-.33-.37-.13-.1-.28-.19-.44-.25-.16-.06-.34-.09-.51-.09-.33,0-.61.06-.84.19-.23.13-.41.3-.56.51-.14.21-.25.46-.31.73-.07.27-.1.55-.1.84s.03.55.1.81c.07.26.17.5.31.71.14.21.33.38.56.51.23.13.51.19.84.19.44,0,.79-.14,1.04-.41.25-.27.4-.63.46-1.08h1.41c-.04.41-.13.79-.29,1.12-.15.33-.36.62-.61.86-.25.24-.55.42-.89.54-.34.12-.71.19-1.12.19-.51,0-.96-.09-1.37-.26-.41-.18-.75-.42-1.03-.73-.28-.31-.49-.67-.64-1.09-.15-.42-.22-.87-.22-1.35s.08-.95.22-1.38c.15-.42.36-.79.64-1.11.28-.32.62-.56,1.03-.74.41-.18.86-.27,1.37-.27.36,0,.71.05,1.03.16.32.11.62.26.87.46.26.2.47.45.64.75.17.3.27.64.32,1.02h-1.41c-.02-.17-.08-.32-.17-.46Z" style="fill:#fff; stroke-width:0px;"/><path d="m101.72,14.98c0,5.5-4.45,9.96-9.95,9.97-5.5,0-9.96-4.45-9.97-9.95h0c0-5.52,4.45-9.98,9.95-9.98,5.5,0,9.96,4.45,9.97,9.95h0Z" style="fill:#fff; stroke-width:0px;"/><path d="m91.74,3.39c3.25,0,6,1.12,8.24,3.36,2.25,2.24,3.37,4.99,3.37,8.23s-1.1,5.96-3.31,8.15c-2.34,2.3-5.11,3.45-8.3,3.45s-5.87-1.14-8.16-3.42c-2.28-2.28-3.42-5-3.42-8.17s1.14-5.91,3.42-8.23c2.23-2.24,4.95-3.36,8.16-3.36Zm-8.97,8.48c-.35.98-.52,2.02-.52,3.12,0,2.57.94,4.79,2.81,6.67,1.88,1.87,4.11,2.81,6.71,2.81s4.85-.95,6.76-2.84c.64-.62,1.17-1.3,1.58-2.03l-4.37-1.95c-.3,1.47-1.61,2.46-3.19,2.58v1.79h-1.33v-1.79c-1.3-.01-2.56-.55-3.52-1.39l1.6-1.61c.77.72,1.54,1.05,2.59,1.05.68,0,1.43-.27,1.43-1.15,0-.31-.12-.53-.31-.7l-1.11-.49-1.38-.61c-.68-.3-1.26-.56-1.84-.82l-5.92-2.64Zm9-6.39c-2.63,0-4.86.93-6.68,2.78-.5.5-.93,1.02-1.29,1.57l4.43,1.97c.4-1.23,1.57-1.98,2.99-2.06v-1.79h1.33v1.79c.92.04,1.92.3,2.91,1.06l-1.52,1.57c-.56-.4-1.27-.68-1.98-.68-.58,0-1.39.18-1.39.9,0,.11.04.21.1.29l1.48.66,1,.45c.64.29,1.25.56,1.86.83l5.94,2.64c.2-.78.29-1.61.29-2.48,0-2.65-.93-4.89-2.79-6.73-1.84-1.86-4.07-2.78-6.7-2.78Z" style="stroke-width:0px;"/><path d="m63.36,4.48c5.93,0,10.74,4.81,10.74,10.74s-4.81,10.74-10.74,10.74-10.74-4.81-10.74-10.74,4.81-10.74,10.74-10.74Z" style="fill:#fff; stroke-width:0px;"/><path d="m66.47,12.11c0-.41-.34-.75-.75-.75h-4.74c-.41,0-.75.34-.75.75v4.74h1.32v5.62h3.6v-5.62h1.32v-4.74h0Z" style="stroke-width:0px;"/><path d="m63.35,7.49c.9,0,1.62.73,1.62,1.62s-.73,1.62-1.62,1.62-1.62-.73-1.62-1.62.73-1.62,1.62-1.62Z" style="stroke-width:0px;"/><path d="m63.33,3.39c-3.21,0-5.93,1.12-8.16,3.36-2.28,2.32-3.42,5.06-3.42,8.23s1.14,5.89,3.42,8.17c2.28,2.28,5,3.42,8.16,3.42s5.96-1.15,8.3-3.45c2.21-2.18,3.31-4.9,3.31-8.15s-1.12-5.99-3.37-8.23c-2.24-2.24-4.99-3.36-8.24-3.36Zm.03,2.09c2.63,0,4.87.93,6.71,2.78,1.86,1.84,2.79,4.08,2.79,6.73s-.91,4.88-2.73,6.64c-1.92,1.89-4.17,2.84-6.76,2.84s-4.83-.94-6.7-2.81c-1.88-1.87-2.82-4.1-2.82-6.67s.95-4.81,2.84-6.73c1.82-1.85,4.05-2.78,6.68-2.78Z" style="stroke-width:0px;"/></svg>